<svg xmlns="http://www.w3.org/2000/svg" xmlns:xlink="http://www.w3.org/1999/xlink" xmlns:serif="http://www.serif.com/" width="100%" height="100%" viewBox="0 0 1000 1000" version="1.1" xml:space="preserve" style="fill-rule:evenodd;clip-rule:evenodd;stroke-linejoin:round;stroke-miterlimit:2;">
    <g transform="matrix(0.042489,0,0,0.042489,-360.456575,104.703213)">
        <g>
            <g transform="matrix(1,0,0,1,8286.243047,4303.693167)">
                <path d="M6141.902,2790.997C6141.902,2790.997 6195.819,2790.997 6560.802,2790.997C6925.785,2790.997 7437.123,2635.277 7721.205,2403.195L7721.205,5620.782C7721.205,6507.916 7002.04,7227.081 6114.905,7227.081L553.601,7227.081L553.601,2475.994C553.601,1588.859 1272.765,869.695 2159.9,869.695L8148.104,869.695C8148.104,985.634 8135.356,1100.259 8110.635,1211.695C8049.698,1486.391 7916.012,1741.713 7721.205,1949.587C7709.534,1962.041 7697.644,1974.324 7685.538,1986.43C7674.042,1997.926 7662.388,2009.226 7650.58,2020.328C7358.153,2295.272 6971.402,2448.997 6568.802,2448.997C6166.202,2448.997 2598.276,2448.997 2598.276,2448.997C2363.446,2448.997 2173.079,2639.364 2173.079,2874.194L2173.079,5647.778L5716.705,5647.778C5951.535,5647.778 6141.902,5457.411 6141.902,5222.582L6141.902,2790.997Z" style="fill:#006BE6;"/>
            </g>
            <g transform="matrix(1,0,0,1,-1550.928002,1903.006355)">
                <circle cx="11998.076" cy="10741.123" r="789.651" style="fill:#006BE6;"/>
            </g>
            <g transform="matrix(1,0,0,1,2434.982705,1903.005949)">
                <circle cx="11998.076" cy="10741.123" r="789.651" style="fill:#006BE6;"/>
            </g>
            <g transform="matrix(2.743962,0,0,2.6462,-7503.16189,-9188.790697)">
                <path d="M8823.475,8549.079C8823.475,8549.079 8823.475,7246.803 8823.475,6476.648C8823.475,6330.013 8879.65,6189.383 8979.643,6085.696C9079.636,5982.009 9215.255,5923.759 9356.666,5923.759L9356.666,5923.759L9385.604,6148.757C9468.045,6053.731 9557.136,5986.456 9652.878,5946.931C9748.619,5907.368 9855.815,5887.587 9974.465,5887.587C10159.656,5887.587 10313.743,5931.351 10436.727,6018.879C10559.71,6106.406 10652.192,6224.209 10714.174,6372.286C10776.155,6520.363 10807.146,6686.263 10807.146,6869.984C10807.146,7057.624 10774.592,7225.954 10709.483,7374.973C10644.374,7523.992 10547.672,7641.663 10419.376,7727.985C10291.08,7814.307 10133.13,7857.468 9945.528,7857.468C9866.44,7857.468 9791.686,7848.199 9721.264,7829.661C9650.843,7811.085 9588.146,7786.255 9533.172,7755.17C9478.199,7724.047 9432.853,7689.666 9397.133,7652.025C9397.133,7652.025 9397.133,7788.085 9397.133,7954.228C9397.133,8111.992 9336.694,8263.295 9229.113,8374.851C9121.531,8486.408 8975.619,8549.079 8823.475,8549.079L8823.475,8549.079ZM9836.279,7337.332C9941.402,7337.332 10023.391,7314.555 10082.245,7269.002C10141.099,7223.41 10182.452,7165.894 10206.302,7096.452C10230.191,7027.01 10242.135,6957.323 10242.135,6887.392C10242.135,6809.246 10228.74,6733.531 10201.951,6660.246C10175.199,6586.923 10131.68,6527.108 10071.394,6480.801C10011.108,6434.494 9929.364,6411.34 9826.162,6411.34C9731.626,6411.34 9652.407,6433.646 9588.503,6478.257C9524.6,6522.869 9476.485,6580.517 9444.156,6651.203C9411.866,6721.85 9395.72,6796.963 9395.72,6876.54C9395.72,6955.138 9411.15,7029.648 9442.009,7100.069C9472.868,7170.491 9520.851,7227.649 9585.96,7271.545C9651.069,7315.403 9734.508,7337.332 9836.279,7337.332Z" style="fill:#006BE6;"/>
            </g>
            <g transform="matrix(2.732811,0,0,2.6462,-7641.807386,-9188.791261)">
                <path d="M11902.41,7854.585C11682.969,7854.585 11517.898,7792.623 11407.198,7668.697C11296.536,7544.734 11241.205,7376.895 11241.205,7165.178L11241.205,6435.247L10964.831,6435.247L10964.831,6209.178C10964.831,6133.48 10993.949,6060.882 11045.779,6007.356C11097.609,5953.83 11167.906,5923.759 11241.204,5923.759L11241.205,5923.759C11241.205,5923.759 11241.205,5923.759 11241.205,5923.759C11241.205,5792.136 11291.835,5665.904 11381.956,5572.832C11472.078,5479.761 11594.31,5427.474 11721.761,5427.474L11814.863,5427.474L11814.863,5923.759L12389.256,5923.759L12389.256,5923.759C12389.256,6206.246 12167.513,6435.247 11893.978,6435.247L11814.863,6435.247L11814.863,7038.578C11814.863,7095.472 11823.303,7144.794 11840.183,7186.542C11857.063,7228.252 11884.305,7260.317 11921.908,7282.736C11959.549,7305.154 12008.268,7316.609 12068.064,7317.099C12127.37,7317.099 12176.673,7307.943 12215.972,7289.631C12255.308,7271.281 12287.505,7251.745 12312.561,7231.022C12312.561,7231.022 12369.073,7383.481 12416.094,7510.335C12435.501,7562.69 12433.928,7620.869 12411.724,7672.025C12389.52,7723.18 12348.511,7763.103 12297.754,7782.977C12297.753,7782.977 12297.753,7782.977 12297.753,7782.977C12230.007,7809.503 12161.997,7828.06 12093.723,7838.647C12025.487,7849.273 11961.716,7854.585 11902.41,7854.585Z" style="fill:#006BE6;"/>
            </g>
            <g transform="matrix(2.6462,0,0,2.6462,-6787.861422,-9188.791261)">
                <path d="M13567.714,7857.468C13377.211,7857.468 13208.165,7819.262 13060.578,7742.849C12913.028,7666.399 12796.921,7555.115 12712.257,7408.997C12627.63,7262.841 12585.317,7087.032 12585.317,6881.57C12585.317,6671.775 12628.233,6492.971 12714.065,6345.157C12799.935,6197.344 12916.174,6084.138 13062.782,6005.54C13209.39,5926.905 13375.289,5887.587 13560.48,5887.587C13749.062,5887.587 13916.054,5927.866 14061.456,6008.423C14206.896,6088.942 14321.439,6203.599 14405.086,6352.392C14488.77,6501.185 14530.613,6680.479 14530.613,6890.274C14530.613,7093.777 14490.089,7268.116 14409.042,7413.292C14328.033,7558.468 14215.298,7668.792 14070.838,7744.262C13926.416,7819.733 13758.708,7857.468 13567.714,7857.468ZM13559.067,7328.685C13660.347,7328.685 13740.999,7306.982 13801.021,7263.576C13861.081,7220.17 13904.016,7164.217 13929.826,7095.717C13955.635,7027.217 13968.54,6956.796 13968.54,6884.453C13968.54,6812.11 13955.635,6740.256 13929.826,6668.893C13904.016,6597.529 13861.571,6538.223 13802.49,6490.974C13743.41,6443.687 13662.269,6420.044 13559.067,6420.044C13458.276,6420.044 13377.361,6443.687 13316.322,6490.974C13255.32,6538.223 13211.914,6597.058 13186.104,6667.48C13160.332,6737.864 13147.446,6810.188 13147.446,6884.453C13147.446,6958.755 13160.822,7030.156 13187.574,7098.656C13214.326,7167.118 13257.732,7222.582 13317.791,7265.045C13377.851,7307.472 13458.276,7328.685 13559.067,7328.685Z" style="fill:#006BE6;"/>
            </g>
        </g>
    </g>
</svg>