<svg xmlns="http://www.w3.org/2000/svg" xmlns:xlink="http://www.w3.org/1999/xlink" xmlns:serif="http://www.serif.com/" width="100%" height="100%" viewBox="0 0 1000 1000" version="1.1" xml:space="preserve" style="fill-rule:evenodd;clip-rule:evenodd;stroke-linejoin:round;stroke-miterlimit:2;">
    <g transform="matrix(0.042489,0,0,0.042489,-360.456575,104.703213)">
        <g>
            <g transform="matrix(1,0,0,1,16230.089654,4303.693167)">
                <path d="M6141.902,2790.997C6141.902,2790.997 6195.819,2790.997 6560.802,2790.997C6925.785,2790.997 7437.123,2635.277 7721.205,2403.195L7721.205,5620.782C7721.205,6507.916 7002.04,7227.081 6114.905,7227.081L553.601,7227.081L553.601,2475.994C553.601,1588.859 1272.765,869.695 2159.9,869.695L8148.104,869.695C8148.104,985.634 8135.356,1100.259 8110.635,1211.695C8049.698,1486.391 7916.012,1741.713 7721.205,1949.587C7709.534,1962.041 7697.644,1974.324 7685.538,1986.43C7674.042,1997.926 7662.388,2009.226 7650.58,2020.328C7358.153,2295.272 6971.402,2448.997 6568.802,2448.997C6166.202,2448.997 2598.276,2448.997 2598.276,2448.997C2363.446,2448.997 2173.079,2639.364 2173.079,2874.194L2173.079,5647.778L5716.705,5647.778C5951.535,5647.778 6141.902,5457.411 6141.902,5222.582L6141.902,2790.997Z" style="fill:#006BE6;"/>
            </g>
            <g transform="matrix(1,0,0,1,6392.918605,1903.006355)">
                <circle cx="11998.076" cy="10741.123" r="789.651" style="fill:#006BE6;"/>
            </g>
            <g transform="matrix(1,0,0,1,10378.829312,1903.005949)">
                <circle cx="11998.076" cy="10741.123" r="789.651" style="fill:#006BE6;"/>
            </g>
        </g>
    </g>
</svg>