<svg xmlns="http://www.w3.org/2000/svg" width="1774" height="887" preserveAspectRatio="none" style="display: block;" version="1.1" viewBox="0 0 2048 1024"><defs><pattern id="_hkelkcap" patternUnits="userSpaceOnUse" width="409.6" height="409.6" patternTransform="rotate(-30)"></pattern></defs><path fill="rgb(36,95,217)" d="M412.224 338.014c115.658-10.772 218.173 74.197 229.049 189.845 10.875 115.648-74.002 218.239-189.641 229.217-115.783 10.992-218.532-74.016-229.421-189.809-10.889-115.794 74.21-218.467 190.013-229.253"></path><path fill="rgb(255,255,255)" d="M426.843 421.148c69.811-2.77 128.618 51.644 131.266 121.46 2.648 69.815-51.868 128.527-121.688 131.054-69.649 2.521-128.185-51.832-130.827-121.476s51.609-128.275 121.249-131.038"></path><path fill="rgb(36,95,217)" d="M1608.66 338.355c115.73-10.983 218.4 74.049 229.17 189.799 10.77 115.749-74.45 218.263-190.22 228.819-115.47 10.529-217.66-74.422-228.4-189.87s74.02-217.793 189.45-228.748"></path><path fill="rgb(255,255,255)" d="M1612.68 422.217c69.18-8.737 132.34 40.276 141.05 109.458s-40.33 132.323-109.51 141.009c-69.15 8.682-132.25-40.323-140.96-109.469-8.71-69.147 40.28-132.265 109.42-140.998"></path><path fill="rgb(36,95,217)" d="M709.818 343.125c3.862-.331 7.082-.421 10.936-.451l98.343-.133c61.188.008 110.492-5.99 158.49 41.46a139.83 139.83 0 0 1 42.253 98.317 136.97 136.97 0 0 1-39.804 96.006c-40.693 40.554-80.059 42.446-132.777 42.287l-61.961-.049c-.356 18.957 2.184 112.655-1.461 122.889-1.481 4.159-4.735 5.84-8.447 7.606-16.273.745-49.43 2.355-64.418-.251-3.124-.543-8.986-2.081-10.676-5.092-1.97-3.508-2.04-9.346-2.251-13.363-1.447-27.634-.186-55.969-.159-83.668.015-16.254-2.07-56.308 1.559-70.066 17.904-67.879 158.263-18.566 205.459-46.033 14.102-8.207 23.319-21.874 27.339-37.513 3.601-14.012 1.327-30.842-6.255-43.295-7.226-11.868-16.813-20.417-29.941-25.11a74 74 0 0 0-18.428-3.942c-12.409-1.11-33.77-.434-46.923-.419l-85.64.212c-31.766.169-50.877 7.161-46.628-33.835 1.739-16.78-6.254-37.15 11.39-45.557m345.092.071c20.8-1.081 46.31-.478 67.42-.483l117.45.003 95.87.061c17.37.022 34.67-.119 52.03.517 8.39.308 15.35 5.936 14.66 14.734-1.38 17.66 3.52 46.313-3.14 61.856-2.99 6.972-46.33 5.222-55.05 5.212l-78.4.014-.34 202.568c-.24 17.039 2.22 110.502-2.88 118.374-1.84 2.826-4.4 4.317-7.66 4.912-9.68 1.768-53.3 1.479-63.51.024-3.85-.547-7.07-1.389-10.26-3.654-5.52-9.041-3.95-39.213-3.94-50.503l.1-65.699.72-206.805c-40.08-1.5-85.28 2.613-125.32-1.782-9.81-.54-11.06-18.95-9.76-26.323 3.34-18.909-7.99-43.157 12.01-53.026"></path><g id="_h7c6b40n" pointer-events="none" style="mix-blend-mode:multiply"><rect width="100%" height="100%" fill="url(#_hkelkcap)"></rect></g><g pointer-events="none"></g></svg>